<svg xmlns="http://www.w3.org/2000/svg" width="22" height="22" viewBox="0 0 22 22" fill="none">
    <path d="M4.8158 16.0738H16.2632M4.8158 12.0113H16.2632M20.079 6.27306V18.1051C20.079 18.6438 19.878 19.1605 19.5202 19.5414C19.1624 19.9223 18.6771 20.1363 18.1711 20.1363H2.9079C2.40189 20.1363 1.91661 19.9223 1.55881 19.5414C1.20101 19.1605 1 18.6438 1 18.1051V6.27306C1.00154 5.86798 1.1168 5.47263 1.33098 5.13782C1.54517 4.80301 1.84849 4.54403 2.20198 4.39415L9.83358 1.14415C10.2869 0.951949 10.7921 0.951949 11.2454 1.14415L18.877 4.39415C19.2305 4.54403 19.5338 4.80301 19.748 5.13782C19.9622 5.47263 20.0775 5.86798 20.079 6.27306Z" stroke="#0017A9" strokeWidth="2" strokeLinecap="round" strokeLinejoin="round"/>
    <path d="M4.8158 13.6724C4.8158 10.5113 7.37838 7.94873 10.5395 7.94873V7.94873C13.7006 7.94873 16.2632 10.5113 16.2632 13.6724V14.4125C16.2632 17.5736 13.7006 20.1362 10.5395 20.1362V20.1362C7.37838 20.1362 4.8158 17.5736 4.8158 14.4125V13.6724Z" stroke="#0017A9" strokeWidth="2" strokeLinecap="round" strokeLinejoin="round"/>
</svg>