<svg width="20" height="20" viewBox="0 0 20 20" fill="none" xmlns="http://www.w3.org/2000/svg">
<path fill-rule="evenodd" clip-rule="evenodd" d="M10 8.5C10.5304 8.5 11.0391 8.28929 11.4142 7.91421C11.7893 7.53914 12 7.03043 12 6.5C12 5.96957 11.7893 5.46086 11.4142 5.08579C11.0391 4.71071 10.5304 4.5 10 4.5C9.46957 4.5 8.96086 4.71071 8.58579 5.08579C8.21071 5.46086 8 5.96957 8 6.5C8 7.03043 8.21071 7.53914 8.58579 7.91421C8.96086 8.28929 9.46957 8.5 10 8.5ZM10 5.5C10.2652 5.5 10.5196 5.60536 10.7071 5.79289C10.8946 5.98043 11 6.23478 11 6.5C11 6.76522 10.8946 7.01957 10.7071 7.20711C10.5196 7.39464 10.2652 7.5 10 7.5C9.73478 7.5 9.48043 7.39464 9.29289 7.20711C9.10536 7.01957 9 6.76522 9 6.5C9 6.23478 9.10536 5.98043 9.29289 5.79289C9.48043 5.60536 9.73478 5.5 10 5.5Z" fill="black"/>
<path fill-rule="evenodd" clip-rule="evenodd" d="M5.5 6.286C5.5 8.959 8.153 13.5 10 13.5C11.848 13.5 14.5 8.959 14.5 6.286C14.5 3.65 12.493 1.5 10 1.5C7.507 1.5 5.5 3.65 5.5 6.286ZM13.5 6.286C13.5 8.479 11.152 12.5 10 12.5C8.849 12.5 6.5 8.48 6.5 6.286C6.5 4.187 8.075 2.5 10 2.5C11.925 2.5 13.5 4.187 13.5 6.286Z" fill="black"/>
<path d="M13.435 9.14018C13.3155 9.08874 13.2207 8.99269 13.1708 8.87246C13.1209 8.75223 13.1199 8.61729 13.168 8.49632C13.216 8.37535 13.3093 8.27789 13.4281 8.22465C13.5469 8.1714 13.6817 8.16657 13.804 8.21118C14.2107 8.37247 14.5771 8.62074 14.8777 8.93858C15.1783 9.25643 15.4057 9.63617 15.544 10.0512L16.878 14.0512C17.0285 14.5023 17.0695 14.9828 16.9977 15.4529C16.926 15.923 16.7435 16.3693 16.4653 16.755C16.1871 17.1407 15.8212 17.4548 15.3978 17.6713C14.9744 17.8878 14.5056 18.0005 14.03 18.0002H5.97003C5.49464 18.0002 5.02605 17.8872 4.60289 17.6706C4.17973 17.454 3.81411 17.1399 3.53616 16.7542C3.25822 16.3685 3.0759 15.9223 3.00425 15.4524C2.93259 14.9824 2.97365 14.5022 3.12403 14.0512L4.45703 10.0512C4.59778 9.62873 4.83081 9.24291 5.13921 8.92171C5.44761 8.60051 5.82364 8.35199 6.24003 8.19418C6.30142 8.17087 6.3668 8.15988 6.43244 8.16184C6.49808 8.1638 6.56269 8.17867 6.62259 8.2056C6.68248 8.23253 6.73648 8.27099 6.78151 8.31879C6.82654 8.36659 6.86172 8.42279 6.88503 8.48418C6.90834 8.54558 6.91933 8.61096 6.91737 8.6766C6.91541 8.74224 6.90054 8.80685 6.87361 8.86674C6.84668 8.92664 6.80822 8.98064 6.76042 9.02567C6.71262 9.0707 6.65642 9.10587 6.59503 9.12918C6.31709 9.23433 6.06607 9.40008 5.86022 9.61441C5.65437 9.82873 5.49888 10.0862 5.40503 10.3682L4.07203 14.3682C3.97189 14.6688 3.94462 14.989 3.99249 15.3023C4.04036 15.6155 4.16198 15.913 4.34734 16.17C4.5327 16.427 4.77649 16.6364 5.05861 16.7807C5.34074 16.925 5.65312 17.0003 5.97003 17.0002H14.032C14.349 17.0002 14.6614 16.9248 14.9435 16.7803C15.2256 16.6359 15.4693 16.4264 15.6545 16.1693C15.8398 15.9121 15.9613 15.6147 16.009 15.3013C16.0568 14.988 16.0293 14.6678 15.929 14.3672L14.597 10.3672C14.5047 10.0906 14.3531 9.8376 14.1527 9.62582C13.9523 9.41405 13.7081 9.24864 13.437 9.14118" fill="black"/>
</svg>